<?xml version="1.0" encoding="UTF-8"?>
<!DOCTYPE svg PUBLIC "-//W3C//DTD SVG 1.1//EN" "http://www.w3.org/Graphics/SVG/1.1/DTD/svg11.dtd">
<svg version="1.1" xmlns="http://www.w3.org/2000/svg" xmlns:xlink="http://www.w3.org/1999/xlink" x="0" y="0" width="960" height="500" viewBox="0, 0, 960, 500">
  <g id="Layer_1">
    <g id="Layer_1">
      <path d="M0,0 L960,0 L960,500 L0,500 z" fill="#FFFFFF"/>
      <g>
        <path d="M166.136,96.349 C166.136,96.349 166.136,96.349 166.136,96.349 M166.136,96.349 C166.136,96.349 166.136,96.349 166.136,96.349 M160.626,108.779 C166.156,104.759 170.516,99.129 176.376,90.669 M160.626,108.779 C165.766,103.819 169.726,98.239 176.376,90.669 M159.706,115.939 C165.236,109.059 169.046,104.489 182.676,89.519 M159.706,115.939 C168.246,105.569 177.566,96.199 182.676,89.519 M159.446,122.329 C168.676,111.619 179.926,101.469 188.976,88.369 M159.446,122.329 C166.606,113.319 175.256,104.669 188.976,88.369 M159.186,128.729 C168.716,116.169 180.436,105.039 194.616,87.979 M159.186,128.729 C167.086,117.849 176.606,108.129 194.616,87.979 M159.586,134.379 C173.896,119.139 184.596,105.959 199.606,88.339 M159.586,134.379 C172.626,118.779 185.186,104.389 199.606,88.339 M159.316,140.769 C172.036,123.969 188.876,106.049 205.246,87.939 M159.316,140.769 C174.696,123.809 189.576,106.929 205.246,87.939 M159.056,147.169 C177.956,126.889 194.936,103.399 210.236,88.299 M159.056,147.169 C179.266,125.019 200.576,101.249 210.236,88.299 M159.456,152.809 C181.466,126.479 205.096,99.019 215.876,87.909 M159.456,152.809 C173.776,137.339 187.156,121.129 215.876,87.909 M159.196,159.209 C181.666,131.449 208.036,105.389 220.866,88.269 M159.196,159.209 C173.956,142.809 188.796,125.239 220.866,88.269 M158.926,165.609 C175.096,144.369 192.476,128.409 225.846,88.629 M158.926,165.609 C173.466,149.679 186.356,135.879 225.846,88.629 M159.326,171.249 C187.446,141.369 214.046,107.249 231.496,88.229 M159.326,171.249 C187.986,139.799 213.996,107.069 231.496,88.229 M159.066,177.649 C176.236,157.049 191.426,139.999 236.476,88.599 M159.066,177.649 C178.676,155.409 196.856,132.789 236.476,88.599 M158.806,184.049 C187.246,155.529 210.326,125.599 242.126,88.199 M158.806,184.049 C189.336,146.509 223.096,109.169 242.126,88.199 M159.196,189.689 C185.946,156.959 213.596,125.529 247.106,88.559 M159.196,189.689 C190.516,152.369 222.646,115.349 247.106,88.559 M158.936,196.089 C184.216,168.429 209.986,138.509 252.756,88.169 M158.936,196.089 C178.946,173.109 199.406,149.339 252.756,88.169 M158.676,202.489 C195.546,157.339 231.466,117.279 257.736,88.529 M158.676,202.489 C182.496,174.649 208.036,143.759 257.736,88.529 M159.066,208.129 C188.376,172.469 217.596,137.579 263.386,88.129 M159.066,208.129 C185.386,181.369 208.946,153.629 263.386,88.129 M158.806,214.529 C189.326,179.679 221.436,141.349 268.366,88.489 M158.806,214.529 C193.366,174.769 227.406,134.189 268.366,88.489 M159.206,220.169 C197.956,174.629 238.396,129.419 274.016,88.099 M159.206,220.169 C185.856,189.309 212.876,159.669 274.016,88.099 M159.596,225.809 C201.226,177.109 243.936,125.789 278.996,88.459 M159.596,225.809 C192.226,188.849 223.106,152.649 278.996,88.459 M160.646,230.699 C206.876,176.879 250.396,123.819 284.646,88.059 M160.646,230.699 C209.486,174.689 256.956,117.979 284.646,88.059 M163.006,234.079 C210.856,179.219 258.816,126.409 289.626,88.419 M163.006,234.079 C203.546,186.499 243.486,141.979 289.626,88.419 M165.376,237.459 C189.686,209.489 219.456,177.309 295.276,88.029 M165.376,237.459 C208.516,188.259 250.996,139.869 295.276,88.029 M167.736,240.839 C207.346,193.139 251.006,144.949 300.256,88.389 M167.736,240.839 C221.396,180.399 274.256,120.819 300.256,88.389 M170.756,243.459 C205.896,202.259 238.756,164.669 305.906,87.989 M170.756,243.459 C203.556,205.719 236.396,169.119 305.906,87.989 M174.426,245.329 C209.056,208.329 239.326,169.259 310.886,88.349 M174.426,245.329 C221.266,190.139 270.326,135.579 310.886,88.349 M178.756,246.449 C216.076,205.879 250.516,163.049 316.536,87.959 M178.756,246.449 C226.806,192.759 274.376,138.939 316.536,87.959 M183.096,247.559 C216.096,211.159 247.016,173.479 321.516,88.319 M183.096,247.559 C228.986,193.959 273.736,140.619 321.516,88.319 M188.076,247.919 C229.496,199.679 268.776,154.489 326.506,88.679 M188.076,247.919 C224.596,203.919 262.716,158.869 326.506,88.679 M193.066,248.279 C221.356,216.409 248.756,180.089 331.496,89.039 M193.066,248.279 C247.816,183.939 302.646,121.349 331.496,89.039 M198.056,248.639 C249.276,188.999 302.826,125.809 335.826,90.149 M198.056,248.639 C233.646,206.909 271.786,162.169 335.826,90.149 M203.696,248.249 C250.986,195.359 297.786,142.619 340.816,90.509 M203.696,248.249 C245.696,199.619 288.216,150.719 340.816,90.509 M208.686,248.609 C250.476,205.059 289.206,157.399 344.486,92.379 M208.686,248.609 C259.596,189.549 311.756,130.119 344.486,92.379 M214.326,248.209 C247.126,214.369 277.196,175.629 347.506,95.009 M214.326,248.209 C261.216,196.049 306.266,143.259 347.506,95.009 M219.316,248.569 C262.036,200.049 301.286,153.059 351.176,96.879 M219.316,248.569 C253.796,210.379 288.016,171.339 351.176,96.879 M224.956,248.179 C264.996,197.289 310.936,149.159 352.886,101.009 M224.956,248.179 C261.716,205.109 299.786,162.049 352.886,101.009 M229.946,248.539 C266.606,204.579 305.356,161.909 355.246,104.389 M229.946,248.539 C276.256,195.659 320.526,141.379 355.246,104.389 M235.586,248.149 C276.606,200.709 316.466,156.679 356.956,108.519 M235.586,248.149 C265.246,213.479 293.666,179.939 356.956,108.519 M240.576,248.509 C268.476,218.009 293.236,186.529 357.356,114.169 M240.576,248.509 C285.996,197.479 330.226,145.559 357.356,114.169 M246.216,248.109 C284.436,203.829 324.946,156.289 358.406,119.059 M246.216,248.109 C268.986,219.259 293.786,192.979 358.406,119.059 M251.206,248.469 C273.976,221.209 299.936,195.149 358.796,124.699 M251.206,248.469 C271.916,223.829 292.226,199.919 358.796,124.699 M256.846,248.079 C293.476,206.019 332.556,163.199 358.536,131.099 M256.846,248.079 C288.746,210.909 319.156,173.369 358.536,131.099 M261.836,248.439 C295.426,208.119 329.426,167.959 358.276,137.489 M261.836,248.439 C290.976,215.229 320.346,180.759 358.276,137.489 M267.476,248.039 C304.566,206.549 338.306,164.789 358.666,143.139 M267.476,248.039 C299.036,209.959 332.956,171.719 358.666,143.139 M272.466,248.399 C290.466,227.349 307.536,205.509 358.406,149.529 M272.466,248.399 C307.996,208.109 341.406,168.359 358.406,149.529 M278.106,248.009 C300.066,225.749 323.016,199.239 358.806,155.179 M278.106,248.009 C302.736,220.509 325.616,193.889 358.806,155.179 M283.096,248.369 C310.556,219.829 338.716,186.829 358.536,161.579 M283.096,248.369 C298.156,231.449 313.966,212.309 358.536,161.579 M288.736,247.969 C310.326,224.919 326.546,201.119 358.276,167.969 M288.736,247.969 C314.056,220.199 340.166,190.389 358.276,167.969 M293.726,248.329 C309.346,230.609 328.016,210.399 358.676,173.619 M293.726,248.329 C308.326,232.379 322.016,214.869 358.676,173.619 M299.366,247.939 C323.756,222.229 343.626,198.039 358.416,180.009 M299.366,247.939 C316.386,226.229 335.116,206.809 358.416,180.009 M304.356,248.299 C325.316,224.799 344.146,201.019 358.806,185.659 M304.356,248.299 C316.186,233.749 328.376,221.769 358.806,185.659 M309.336,248.659 C324.576,228.869 341.726,214.449 358.546,192.059 M309.336,248.659 C327.966,226.379 347.626,204.249 358.546,192.059 M314.986,248.259 C324.706,237.829 333.716,224.059 358.286,198.449 M314.986,248.259 C327.666,232.699 342.156,218.629 358.286,198.449 M319.966,248.619 C332.296,234.499 343.466,221.509 358.676,204.099 M319.966,248.619 C334.856,232.399 349.516,213.549 358.676,204.099 M325.616,248.229 C335.986,232.589 349.576,220.809 358.416,210.489 M325.616,248.229 C333.386,238.589 341.836,229.369 358.416,210.489 M331.256,247.829 C336.206,239.489 344.836,232.289 358.806,216.139 M331.256,247.829 C342.046,236.009 351.136,223.039 358.806,216.139 M337.556,246.689 C341.006,241.779 345.606,237.679 357.236,224.039 M337.556,246.689 C342.376,241.689 345.926,238.409 357.236,224.039 M345.826,243.269 C349.476,240.259 355.356,232.669 356.976,230.439 M345.826,243.269 C349.946,238.069 352.986,234.479 356.976,230.439 M166.456,240.349 C166.456,240.349 166.456,240.349 166.456,240.349 M166.456,240.349 C166.456,240.349 166.456,240.349 166.456,240.349 M177.386,244.549 C173.456,241.829 169.576,236.389 160.776,230.109 M177.386,244.549 C171.186,238.959 163.876,234.689 160.776,230.109 M184.536,245.459 C177.126,239.079 168.706,230.459 159.636,223.809 M184.536,245.459 C177.486,239.549 171.746,234.059 159.636,223.809 M191.686,246.379 C181.696,236.209 168.706,228.729 158.486,217.509 M191.686,246.379 C181.156,237.099 171.286,229.179 158.486,217.509 M198.086,246.639 C190.456,237.469 181.266,231.619 160.356,213.839 M198.086,246.639 C187.616,238.329 179.086,230.899 160.356,213.839 M203.726,246.249 C192.206,238.659 183.706,230.339 160.716,208.849 M203.726,246.249 C187.446,231.409 170.786,217.409 160.716,208.849 M210.126,246.509 C193.726,234.279 178.216,217.809 160.316,203.209 M210.126,246.509 C200.316,236.469 188.856,227.519 160.316,203.209 M216.526,246.769 C200.846,230.319 183.746,215.919 160.676,198.219 M216.526,246.769 C205.246,236.309 193.436,226.099 160.676,198.219 M222.166,246.379 C203.706,231.939 188.716,217.869 160.286,192.579 M222.166,246.379 C200.066,228.309 179.266,209.169 160.286,192.579 M228.566,246.639 C212.706,230.489 193.826,216.129 160.646,187.589 M228.566,246.639 C210.496,230.149 190.976,213.479 160.646,187.589 M234.206,246.239 C213.356,227.089 195.126,210.649 160.246,181.949 M234.206,246.239 C219.206,232.209 203.646,219.369 160.246,181.949 M240.606,246.499 C219.466,228.499 195.136,205.479 160.606,176.959 M240.606,246.499 C221.346,229.429 202.166,212.449 160.606,176.959 M247.006,246.769 C214.116,220.019 183.746,192.129 160.216,171.319 M247.006,246.769 C219.166,223.099 193.496,199.109 160.216,171.319 M252.646,246.369 C226.276,225.129 204.486,204.959 160.576,166.329 M252.646,246.369 C221.826,220.149 190.946,193.949 160.576,166.329 M259.046,246.629 C222.696,216.449 186.016,184.259 160.936,161.349 M259.046,246.629 C229.696,222.439 200.606,197.959 160.936,161.349 M264.686,246.239 C237.836,220.139 209.386,199.599 160.536,155.699 M264.686,246.239 C239.946,226.239 214.566,204.069 160.536,155.699 M271.086,246.499 C234.416,214.019 192.566,180.769 160.896,150.719 M271.086,246.499 C233.936,214.339 197.456,181.109 160.896,150.719 M277.486,246.759 C238.816,209.349 194.746,176.519 160.506,145.069 M277.486,246.759 C245.496,217.459 211.466,189.949 160.506,145.069 M283.126,246.369 C242.716,210.319 201.696,175.929 160.866,140.089 M283.126,246.369 C238.566,208.779 194.916,171.339 160.866,140.089 M289.526,246.629 C264.236,225.189 237.196,198.649 160.466,134.439 M289.526,246.629 C257.716,218.599 227.126,191.969 160.466,134.439 M295.166,246.229 C267.856,219.509 240.186,196.689 160.826,129.459 M295.166,246.229 C262.386,218.009 230.356,188.639 160.826,129.459 M301.566,246.489 C250.916,203.889 205.546,160.109 160.436,123.809 M301.566,246.489 C255.586,208.369 210.246,168.629 160.436,123.809 M307.966,246.759 C272.846,215.479 238.186,187.799 160.796,118.819 M307.966,246.759 C251.776,199.819 196.876,152.159 160.796,118.819 M313.606,246.359 C276.786,214.729 235.756,181.119 158.896,111.869 M313.606,246.359 C255.116,195.809 197.936,144.539 158.896,111.869 M320.006,246.619 C267.976,201.749 218.346,156.489 160.006,107.539 M320.006,246.619 C270.786,205.789 223.346,162.029 160.006,107.539 M327.156,247.539 C285.576,212.539 246.006,179.039 161.876,103.859 M327.156,247.539 C278.936,206.499 230.396,164.109 161.876,103.859 M332.046,246.489 C278.476,198.499 225.746,150.559 164.496,100.849 M332.046,246.489 C278.766,197.889 224.446,151.169 164.496,100.849 M337.686,246.099 C298.126,209.149 253.536,170.019 166.366,97.169 M337.686,246.099 C301.866,216.449 266.566,185.169 166.366,97.169 M341.826,244.389 C276.516,187.029 213.276,131.269 168.236,93.499 M341.826,244.389 C297.206,204.299 253.566,165.329 168.236,93.499 M345.206,242.029 C277.316,184.599 210.266,124.199 172.376,91.789 M345.206,242.029 C295.676,200.159 245.876,156.179 172.376,91.789 M349.336,240.319 C286.246,188.529 224.696,132.469 176.506,90.079 M349.336,240.319 C303.996,200.559 257.006,160.259 176.506,90.079 M352.716,237.959 C316.166,204.129 277.776,173.389 181.396,89.029 M352.716,237.959 C294.946,186.699 235.616,135.339 181.396,89.029 M354.586,234.279 C314.966,199.259 276.866,166.139 187.036,88.639 M354.586,234.279 C308.456,195.149 264.106,155.309 187.036,88.639 M356.456,230.609 C310.276,189.839 265.616,150.499 191.176,86.929 M356.456,230.609 C317.696,195.709 277.636,161.559 191.176,86.929 M359.076,227.589 C313.546,186.399 265.796,147.549 197.566,87.189 M359.076,227.589 C310.586,185.429 259.656,142.079 197.566,87.189 M359.436,222.599 C310.706,178.079 259.526,132.889 203.216,86.799 M359.436,222.599 C319.006,188.489 279.506,155.809 203.216,86.799 M359.796,217.609 C315.506,180.149 271.716,141.339 209.606,87.059 M359.796,217.609 C303.926,168.119 248.166,118.539 209.606,87.059 M360.916,213.279 C309.116,167.929 260.816,127.019 216.006,87.319 M360.916,213.279 C311.386,171.429 263.346,129.269 216.006,87.319 M360.516,207.639 C306.706,161.759 258.146,119.129 221.656,86.929 M360.516,207.639 C306.456,160.079 252.266,111.899 221.656,86.929 M360.876,202.649 C321.866,167.599 282.986,132.069 228.046,87.189 M360.876,202.649 C328.566,173.399 295.786,143.689 228.046,87.189 M360.486,197.009 C320.396,162.879 279.696,126.659 233.696,86.789 M360.486,197.009 C329.076,171.549 299.746,145.049 233.696,86.789 M360.846,192.019 C317.496,152.509 271.296,113.189 240.086,87.049 M360.846,192.019 C334.286,169.149 308.736,144.939 240.086,87.049 M361.206,187.039 C333.786,164.159 304.026,137.219 246.486,87.309 M361.206,187.039 C323.026,154.209 284.956,121.409 246.486,87.309 M360.806,181.389 C317.926,145.559 278.196,106.129 252.126,86.919 M360.806,181.389 C328.546,152.889 295.286,125.509 252.126,86.919 M361.166,176.409 C339.506,156.819 319.436,137.929 258.526,87.179 M361.166,176.409 C339.776,159.419 317.816,141.239 258.526,87.179 M360.776,170.759 C329.116,141.749 296.166,114.669 264.176,86.789 M360.776,170.759 C323.776,138.719 288.086,106.469 264.176,86.789 M361.136,165.779 C334.056,141.159 303.436,119.489 270.566,87.049 M361.136,165.779 C328.846,136.839 294.486,109.239 270.566,87.049 M360.736,160.129 C343.986,144.169 322.306,128.379 276.966,87.309 M360.736,160.129 C344.456,144.359 327.486,129.079 276.966,87.309 M361.096,155.149 C346.006,141.839 328.786,126.169 282.606,86.919 M361.096,155.149 C343.586,138.949 322.876,120.899 282.606,86.919 M360.706,149.499 C339.706,133.069 321.196,115.109 289.006,87.179 M360.706,149.499 C334.486,127.119 310.336,104.899 289.006,87.179 M361.066,144.519 C342.026,130.549 328.076,115.439 294.656,86.779 M361.066,144.519 C348.426,132.399 333.106,120.759 294.656,86.779 M360.666,138.869 C340.036,119.719 316.836,102.049 301.046,87.039 M360.666,138.869 C346.066,126.859 330.776,112.229 301.046,87.039 M361.036,133.889 C345.116,120.039 324.316,102.179 307.446,87.309 M361.036,133.889 C340.666,116.639 321.636,99.329 307.446,87.309 M360.636,128.239 C348.466,114.519 334.286,105.989 313.086,86.909 M360.636,128.239 C344.066,114.439 328.766,99.689 313.086,86.909 M360.996,123.259 C346.316,110.009 326.696,95.839 319.486,87.169 M360.996,123.259 C345.016,109.789 327.376,93.789 319.486,87.169 M360.606,117.609 C350.516,106.989 337.146,98.119 326.636,88.089 M360.606,117.609 C348.896,108.169 338.466,97.549 326.636,88.089 M359.456,111.309 C350.716,101.939 343.726,96.569 333.796,89.009 M359.456,111.309 C351.276,104.409 344.206,98.819 333.796,89.009 M357.546,104.359 C351.326,98.439 348.226,94.239 340.946,89.919 M357.546,104.359 C351.066,99.449 344.826,92.989 340.946,89.919" fill-opacity="0" stroke="#CED4DA" stroke-width="0.5" stroke-linecap="round"/>
        <path d="M190.276,88.189 C224.676,88.339 256.506,87.559 326.276,88.189 M190.276,88.189 C220.886,88.839 253.776,87.069 326.276,88.189 M326.276,88.189 C347.096,89.899 358.106,97.689 358.276,120.189 M326.276,88.189 C348.386,90.329 356.096,97.249 358.276,120.189 M358.276,120.189 C358.916,158.579 356.106,195.639 358.276,216.189 M358.276,120.189 C359.936,152.109 358.716,186.309 358.276,216.189 M358.276,216.189 C359.496,236.199 348.766,249.049 326.276,248.189 M358.276,216.189 C356.516,237.089 346.016,248.139 326.276,248.189 M326.276,248.189 C282.386,247.329 238.596,249.849 190.276,248.189 M326.276,248.189 C277.366,249.599 229.006,248.329 190.276,248.189 M190.276,248.189 C169.596,247.089 159.246,236.799 158.276,216.189 M190.276,248.189 C168.756,249.109 156.786,238.699 158.276,216.189 M158.276,216.189 C160.066,185.799 156.646,154.539 158.276,120.189 M158.276,216.189 C158.616,194.099 158.936,171.849 158.276,120.189 M158.276,120.189 C158.036,98.799 169.806,86.309 190.276,88.189 M158.276,120.189 C156.946,100.029 170.986,86.059 190.276,88.189" fill-opacity="0" stroke="#1E1E1E" stroke-width="1" stroke-linecap="round"/>
      </g>
      <g>
        <text transform="matrix(1, 0, 0, 1, 257.667, 131.189)">
          <tspan x="-70.596" y="6.5" font-family="Helvetica" font-size="20" fill="#1E1E1E">openbis-ingress</tspan>
        </text>
        <text transform="matrix(1, 0, 0, 1, 257.667, 155.189)">
          <tspan x="-32.803" y="6.5" font-family="Helvetica" font-size="20" fill="#1E1E1E">443/tcp</tspan>
        </text>
      </g>
      <g>
        <path d="M738.36,38.66 C738.36,38.66 738.36,38.66 738.36,38.66 M738.36,38.66 C738.36,38.66 738.36,38.66 738.36,38.66 M732.85,51.09 C739.09,46.74 740.74,39.54 748.6,32.98 M732.85,51.09 C738.54,45.76 743.88,39.62 748.6,32.98 M731.93,58.25 C738.84,47.85 751.17,40.59 754.9,31.83 M731.93,58.25 C737.34,51.02 743.42,44.2 754.9,31.83 M731.67,64.64 C742.17,54.03 751.11,42.84 761.2,30.68 M731.67,64.64 C738.28,55.21 747.27,47.02 761.2,30.68 M731.41,71.04 C739.5,62.14 748.77,51.22 766.84,30.29 M731.41,71.04 C743.41,57.18 755.01,43.9 766.84,30.29 M731.81,76.69 C740.41,67.87 750.73,55.1 771.83,30.65 M731.81,76.69 C741.41,65.81 751.38,53.85 771.83,30.65 M731.54,83.08 C745.24,67.72 759.32,50.52 777.47,30.25 M731.54,83.08 C750.43,61.57 769.23,40.75 777.47,30.25 M731.28,89.48 C746.88,73.75 757.35,59.7 782.46,30.61 M731.28,89.48 C745.2,73.92 760.38,57.22 782.46,30.61 M731.68,95.12 C752.56,70.07 773.86,45.56 788.1,30.22 M731.68,95.12 C751.69,72.21 771.04,49.81 788.1,30.22 M731.42,101.52 C742.58,86.75 755.87,73.52 793.09,30.58 M731.42,101.52 C745.48,85.09 759.21,70.66 793.09,30.58 M731.15,107.92 C749.75,83.06 772.91,59.62 798.07,30.94 M731.15,107.92 C759.14,77.68 784.9,45.64 798.07,30.94 M731.55,113.56 C751.53,87.7 774.19,63.02 803.72,30.54 M731.55,113.56 C748.42,94.42 763.73,76.46 803.72,30.54 M731.29,119.96 C749.2,99.3 766.64,78.55 808.7,30.91 M731.29,119.96 C747.38,100.59 765.68,79.87 808.7,30.91 M731.03,126.36 C758.84,92.43 789.89,57.18 814.35,30.51 M731.03,126.36 C754.57,99.65 777.73,72.7 814.35,30.51 M731.42,132 C750.45,106.89 771.73,84.44 819.33,30.87 M731.42,132 C763,95.75 795.63,59.48 819.33,30.87 M731.16,138.4 C758.76,105.37 788.39,70.46 824.98,30.48 M731.16,138.4 C758.98,107.84 783.86,78.16 824.98,30.48 M730.9,144.8 C758.88,111.74 790.34,78.16 829.96,30.84 M730.9,144.8 C755.66,116.89 780.59,88.92 829.96,30.84 M731.29,150.44 C753.43,126.19 773.81,100.16 835.61,30.44 M731.29,150.44 C752.06,127.27 773.72,102.72 835.61,30.44 M731.03,156.84 C765.57,117.34 801.35,76.56 840.59,30.8 M731.03,156.84 C773.55,108.75 817.59,59.17 840.59,30.8 M731.43,162.48 C760.93,127.52 790.62,93.63 846.24,30.41 M731.43,162.48 C762.99,124.97 795.57,88.58 846.24,30.41 M731.82,168.12 C777.03,116.28 818.77,64.06 851.22,30.77 M731.82,168.12 C773.55,120.42 814.83,72.41 851.22,30.77 M732.87,173.01 C773.96,123.47 814.61,79.13 856.87,30.37 M732.87,173.01 C760.01,141.43 788.7,109.93 856.87,30.37 M735.23,176.39 C764.5,145.68 787.27,116.84 861.85,30.73 M735.23,176.39 C785.37,118.49 836.87,60.43 861.85,30.73 M737.6,179.77 C772.05,138.76 810.3,95.72 867.5,30.34 M737.6,179.77 C766.52,147.16 793.9,112.71 867.5,30.34 M739.96,183.15 C781.08,133.86 824.81,84.94 872.48,30.7 M739.96,183.15 C772.78,148.1 803.68,111.44 872.48,30.7 M742.98,185.77 C777.83,146.89 810.99,107.47 878.13,30.3 M742.98,185.77 C789.1,133.82 834.48,80.44 878.13,30.3 M746.65,187.64 C792.41,136.31 836.63,84.06 883.11,30.66 M746.65,187.64 C785.23,141.92 824.7,96.02 883.11,30.66 M750.98,188.76 C796.98,140.72 840.54,87.38 888.76,30.27 M750.98,188.76 C793.59,138.95 837.03,88.85 888.76,30.27 M755.32,189.87 C808.87,128.8 861.96,65.76 893.74,30.63 M755.32,189.87 C784.48,154.54 815.56,119.4 893.74,30.63 M760.3,190.23 C801.2,143.22 843.54,96.43 899.39,30.23 M760.3,190.23 C810.96,132.11 860.21,74 899.39,30.23 M765.29,190.59 C811.97,135.64 859.89,79.43 904.37,30.59 M765.29,190.59 C816.9,129.07 869.81,66.7 904.37,30.59 M770.28,190.95 C814.05,141.11 853.66,90.91 909.36,30.95 M770.28,190.95 C823.33,132.63 874.6,74.34 909.36,30.95 M775.92,190.56 C805.56,158.09 832.72,124.53 915,30.56 M775.92,190.56 C804.77,157.4 832.32,126.22 915,30.56 M780.91,190.92 C811.17,157.18 840.24,124.02 919.99,30.92 M780.91,190.92 C821.78,141.97 863.46,94.58 919.99,30.92 M786.55,190.52 C825.59,147.8 867,102.47 924.98,31.28 M786.55,190.52 C838.48,129.44 891.22,70.17 924.98,31.28 M791.54,190.88 C844.12,127.81 899.48,65.57 929.31,32.4 M791.54,190.88 C845.37,127.85 900.62,64.51 929.31,32.4 M797.18,190.49 C826.19,158.19 855.94,124.53 933.64,33.51 M797.18,190.49 C836.2,144.23 876.47,97.1 933.64,33.51 M802.17,190.85 C850.01,134.81 895.59,80.53 937.31,35.38 M802.17,190.85 C850.89,133.56 901.74,76.33 937.31,35.38 M807.81,190.46 C859.46,133.69 908.01,74.71 940.99,37.25 M807.81,190.46 C860.65,130.76 913.11,69.67 940.99,37.25 M812.8,190.82 C854.23,145.09 891.93,96.03 943.35,40.63 M812.8,190.82 C840.06,160.76 866.51,130.17 943.35,40.63 M818.44,190.42 C853.01,152.07 885.22,113.71 945.72,44.01 M818.44,190.42 C843.88,159.53 870.07,129.27 945.72,44.01 M823.43,190.78 C852.25,156.7 882.7,120.95 948.08,47.39 M823.43,190.78 C871.45,137.98 916.09,86.53 948.08,47.39 M829.07,190.39 C862.27,151.03 894.93,111.97 949.78,51.52 M829.07,190.39 C869.84,143.56 910.32,98.19 949.78,51.52 M834.06,190.75 C855.88,163.1 880.79,133.94 950.18,57.16 M834.06,190.75 C858.9,165.58 880.45,138.47 950.18,57.16 M839.7,190.35 C879.24,144.44 921.93,95.74 950.57,62.81 M839.7,190.35 C867.82,159.02 896.99,126.74 950.57,62.81 M844.69,190.71 C869.32,160.55 893.65,132.04 950.97,68.45 M844.69,190.71 C877.79,151.22 911.98,113.38 950.97,68.45 M850.33,190.32 C872.11,162.63 894.44,136.67 950.71,74.85 M850.33,190.32 C882.26,155.12 913.06,119.22 950.71,74.85 M855.32,190.68 C878.38,165.35 898.17,141.68 950.45,81.24 M855.32,190.68 C892.37,147.15 930.98,103.26 950.45,81.24 M860.96,190.28 C878.82,166.91 901.05,146.85 950.84,86.89 M860.96,190.28 C891.68,156.32 921.56,120.56 950.84,86.89 M865.95,190.64 C887.38,166.22 911.73,141.63 950.58,93.29 M865.95,190.64 C884.28,169.88 902.99,147.47 950.58,93.29 M871.59,190.25 C893.62,165.9 912.31,144.27 950.97,98.93 M871.59,190.25 C889.87,168.2 907.86,147.81 950.97,98.93 M876.58,190.61 C900.4,165.27 923,137.86 950.71,105.33 M876.58,190.61 C890.78,172.15 906.38,155.52 950.71,105.33 M881.56,190.97 C909.69,159.19 937.77,127.97 950.45,111.72 M881.56,190.97 C906.77,162.35 932.31,131.59 950.45,111.72 M887.21,190.57 C906.48,170.14 921.78,150.16 950.84,117.37 M887.21,190.57 C903.3,170.35 922.04,150 950.84,117.37 M892.19,190.93 C906.13,177.68 915.38,162.27 950.58,123.76 M892.19,190.93 C915.81,163.01 938.67,136.08 950.58,123.76 M897.84,190.54 C917.04,165.61 937.58,143.05 950.98,129.41 M897.84,190.54 C909.86,176.05 922.42,162.12 950.98,129.41 M902.82,190.9 C919.77,169.01 940.84,149.39 950.72,135.81 M902.82,190.9 C914.4,177.14 926.45,162.13 950.72,135.81 M908.47,190.5 C924.96,171.11 943.11,154.4 950.46,142.2 M908.47,190.5 C921.91,174.65 934.35,159.67 950.46,142.2 M913.45,190.86 C926.52,177.31 940.2,160.3 950.85,147.85 M913.45,190.86 C925.21,176.53 937.32,161.47 950.85,147.85 M919.1,190.47 C931.25,177.3 944.78,160.58 950.59,154.24 M919.1,190.47 C926.95,180.82 937.38,169.11 950.59,154.24 M924.74,190.08 C929.7,183.7 934.56,176.75 950.33,160.64 M924.74,190.08 C933.54,180.89 940.8,171.99 950.33,160.64 M931.04,188.93 C939.52,182.37 944.84,173.23 949.41,167.79 M931.04,188.93 C937.41,182.36 943.66,175.42 949.41,167.79 M940.62,184 C942.02,182.94 943.9,181.11 945.87,177.97 M940.62,184 C942.66,181.63 944.12,180.22 945.87,177.97 M738.68,182.66 C738.68,182.66 738.68,182.66 738.68,182.66 M738.68,182.66 C738.68,182.66 738.68,182.66 738.68,182.66 M751.12,188.17 C745.04,184.11 738.71,177.57 733,172.42 M751.12,188.17 C745.31,182.91 737.56,177.27 733,172.42 M758.27,189.09 C752.28,184.88 745.33,178.97 731.86,166.12 M758.27,189.09 C752.36,184.12 744.1,176.57 731.86,166.12 M765.42,190 C758.06,182.91 747.55,174.54 730.71,159.82 M765.42,190 C756.87,181.86 748.28,176.26 730.71,159.82 M771.82,190.26 C759.92,183.43 749.6,172.94 730.31,154.18 M771.82,190.26 C761.06,179.66 750.76,171.12 730.31,154.18 M778.22,190.53 C765.36,181.66 752.93,171.02 730.67,149.19 M778.22,190.53 C761.3,176.65 743.89,160.49 730.67,149.19 M783.86,190.13 C766.5,173.39 745.03,157.89 731.03,144.21 M783.86,190.13 C768,176.63 750.34,161.8 731.03,144.21 M790.26,190.39 C776.93,180.66 766.4,167.25 730.64,138.56 M790.26,190.39 C775.95,176.94 759.66,163.91 730.64,138.56 M795.9,190 C778.62,173.96 757.34,156.83 731,133.58 M795.9,190 C771.66,167.78 745.51,146.46 731,133.58 M802.3,190.26 C773.78,164.59 749.35,144.93 730.6,127.93 M802.3,190.26 C776.2,168.39 751.13,146.16 730.6,127.93 M808.7,190.52 C795.3,179.28 779.71,165.36 730.96,122.95 M808.7,190.52 C777.89,164.96 750.14,138.9 730.96,122.95 M814.34,190.13 C790.86,172.95 770.51,151.55 730.57,117.3 M814.34,190.13 C794.07,174.32 774.6,155.83 730.57,117.3 M820.74,190.39 C790.28,161.89 756.97,136.48 730.93,112.32 M820.74,190.39 C791.32,163.69 761.03,137.47 730.93,112.32 M826.38,189.99 C799.94,164.65 775.07,141.47 730.53,106.67 M826.38,189.99 C790.11,157.7 753.07,126.24 730.53,106.67 M832.78,190.26 C803.82,167.96 777.65,141.94 730.89,101.69 M832.78,190.26 C811.09,171.87 790.76,153.52 730.89,101.69 M839.18,190.52 C811.79,164.95 781.07,140.38 731.25,96.7 M839.18,190.52 C817.47,170.73 794.41,150.1 731.25,96.7 M844.82,190.12 C807.62,155.61 769.06,122.84 730.86,91.06 M844.82,190.12 C815.34,165.34 784.33,138.26 730.86,91.06 M851.22,190.38 C806.07,151.45 761.06,115.33 731.22,86.07 M851.22,190.38 C816.97,161.55 783.3,133.18 731.22,86.07 M856.86,189.99 C824.43,163.8 793.6,135.72 730.82,80.43 M856.86,189.99 C817.56,156.58 776.44,119.82 730.82,80.43 M863.26,190.25 C834.58,165.54 810.37,143.61 731.18,75.44 M863.26,190.25 C830.29,161.76 798.59,134.37 731.18,75.44 M869.66,190.51 C822.92,145.66 773.7,103.6 730.79,69.8 M869.66,190.51 C825.25,153.91 783.7,117.13 730.79,69.8 M875.3,190.12 C840.54,154.91 800.25,123.39 731.15,64.81 M875.3,190.12 C833.25,153.96 791.7,115.76 731.15,64.81 M881.7,190.38 C841.1,155.18 798.09,115.4 730.76,59.17 M881.7,190.38 C837.9,153.87 796.01,116.69 730.76,59.17 M887.34,189.98 C840.67,147.45 793.2,106.97 731.12,54.18 M887.34,189.98 C833.13,142.11 779.07,95.87 731.12,54.18 M893.74,190.25 C841.72,147.4 791.51,100 732.23,49.85 M893.74,190.25 C859.82,159.56 825.35,129.26 732.23,49.85 M900.14,190.51 C840.09,136.42 781.56,86.22 734.1,46.17 M900.14,190.51 C856.23,153.36 813.6,115.99 734.1,46.17 M905.78,190.11 C863.57,150.92 821.09,115.19 735.97,42.5 M905.78,190.11 C868.91,157.06 832.25,126.42 735.97,42.5 M912.18,190.37 C850.36,134.54 789.11,82.38 738.59,39.48 M912.18,190.37 C843.96,130.97 778.05,73.08 738.59,39.48 M917.82,189.98 C858.63,137.95 797.4,85.54 741.22,36.46 M917.82,189.98 C862.1,140.21 806.08,92.62 741.22,36.46 M922.71,188.93 C871.69,145.88 824.09,102.38 745.35,34.75 M922.71,188.93 C881.39,153.34 842.51,118.06 745.35,34.75 M928.35,188.53 C876.69,141.68 825.44,98.86 748.73,32.39 M928.35,188.53 C879.67,145.78 832.09,102.95 748.73,32.39 M933.24,187.48 C864.9,124.14 793.53,64.58 753.62,31.34 M933.24,187.48 C862.78,127 791.98,66.41 753.62,31.34 M937.37,185.78 C880.55,136.13 823.41,87.92 759.26,30.95 M937.37,185.78 C873.72,129.57 811.39,74.22 759.26,30.95 M940.75,183.41 C898.34,148.02 859.77,112.71 764.15,29.9 M940.75,183.41 C901.15,148.72 860.44,114.4 764.15,29.9 M943.38,180.39 C893.27,136.14 843.51,92.58 770.55,30.16 M943.38,180.39 C876.9,123.31 811.33,65.6 770.55,30.16 M946,177.38 C913.67,145.79 876.76,116.08 776.95,30.42 M946,177.38 C912.16,148.52 878.86,118.97 776.95,30.42 M947.87,173.7 C888.93,120.59 827.29,68.15 782.59,30.02 M947.87,173.7 C903.36,132.64 856.06,93.76 782.59,30.02 M948.99,169.37 C916.25,141.53 880.38,111.87 788.99,30.29 M948.99,169.37 C899.74,128.33 850.43,84.96 788.99,30.29 M950.1,165.04 C892.64,116.17 837.27,63.04 794.63,29.89 M950.1,165.04 C902.41,123 856.44,83.34 794.63,29.89 M950.46,160.05 C919.89,131.69 888,104.86 801.03,30.15 M950.46,160.05 C911.95,125.44 874.45,91.96 801.03,30.15 M950.82,155.07 C921.55,132.46 892.69,107.27 807.43,30.41 M950.82,155.07 C920.13,126.32 888.29,99.01 807.43,30.41 M951.18,150.08 C915.75,122.52 882.25,91.72 813.07,30.02 M951.18,150.08 C909.55,115 869.03,78.34 813.07,30.02 M950.79,144.44 C920.9,118.94 890.15,89.69 819.47,30.28 M950.79,144.44 C906.03,104.17 858.26,64.28 819.47,30.28 M951.15,139.45 C925.06,114.66 896.89,90.77 825.11,29.89 M951.15,139.45 C926.79,117.95 900.46,95.52 825.11,29.89 M950.75,133.81 C910.47,99.46 871.56,66.89 831.51,30.15 M950.75,133.81 C912.54,101.74 874.14,67.71 831.51,30.15 M951.11,128.82 C913.72,94.11 875.14,62.91 837.91,30.41 M951.11,128.82 C921.66,103.09 893.87,77.22 837.91,30.41 M950.72,123.17 C907.6,87.61 864.94,52.28 843.55,30.01 M950.72,123.17 C920.88,97.31 890.3,70.45 843.55,30.01 M951.08,118.19 C926.12,96.58 904.69,76.62 849.95,30.28 M951.08,118.19 C923.56,94.47 893.99,70.47 849.95,30.28 M950.68,112.54 C926.77,89.79 903.74,71.39 855.59,29.88 M950.68,112.54 C920.76,85.24 888.27,58.41 855.59,29.88 M951.04,107.56 C927.82,87.54 902.55,64.17 861.99,30.14 M951.04,107.56 C932.16,89.68 914.22,74.82 861.99,30.14 M951.4,102.57 C920.47,77.64 893.78,49.89 868.38,30.4 M951.4,102.57 C931.49,83.79 911.86,66.65 868.38,30.4 M951.01,96.93 C928.65,78.74 910.55,61.31 874.03,30.01 M951.01,96.93 C925.36,74.36 900.28,53.57 874.03,30.01 M951.37,91.94 C930.35,74.68 910.7,58.36 880.43,30.27 M951.37,91.94 C925.45,69.21 899.28,45.62 880.43,30.27 M950.97,86.3 C932.24,69.98 913.51,52.51 886.07,29.88 M950.97,86.3 C937.52,74.17 925.09,63.39 886.07,29.88 M951.33,81.31 C938.65,68.84 921.26,58.43 892.47,30.14 M951.33,81.31 C929.32,62.26 908.72,44.72 892.47,30.14 M950.94,75.67 C933.91,61.33 915.07,44.2 898.86,30.4 M950.94,75.67 C930,58.17 910.26,40.98 898.86,30.4 M951.3,70.68 C935.68,57.96 921.1,44.21 904.51,30 M951.3,70.68 C941.56,62.87 932.29,54.78 904.51,30 M950.9,65.04 C940.47,56.36 932.85,48.45 910.9,30.27 M950.9,65.04 C940.19,54.38 929.37,45.02 910.9,30.27 M950.51,59.39 C939.08,50.28 925.61,38.49 916.55,29.87 M950.51,59.39 C937.25,47.11 923.83,36.39 916.55,29.87 M949.36,53.1 C941.73,48.1 935.83,41.76 924.46,31.45 M949.36,53.1 C942.46,47.44 935.44,40.04 924.46,31.45 M946.7,45.48 C941.92,41.04 937.93,37.43 931.61,32.36 M946.7,45.48 C940.56,41.46 936.53,36.19 931.61,32.36" fill-opacity="0" stroke="#CED4DA" stroke-width="0.5" stroke-linecap="round"/>
        <path d="M762.5,30.5 C820.96,27.93 883.75,29.68 918.5,30.5 M762.5,30.5 C820.49,29.78 877.62,29.64 918.5,30.5 M918.5,30.5 C940.82,30.79 951.3,40.51 950.5,62.5 M918.5,30.5 C941.86,31.62 950.21,40.03 950.5,62.5 M950.5,62.5 C950.87,93.95 948.62,125.85 950.5,158.5 M950.5,62.5 C951.84,85.08 951.18,107.92 950.5,158.5 M950.5,158.5 C951.12,181.08 940.49,188.76 918.5,190.5 M950.5,158.5 C949.26,182.13 938.2,189.94 918.5,190.5 M918.5,190.5 C872.81,190.65 831.45,191.36 762.5,190.5 M918.5,190.5 C886.01,189.44 855.35,189.56 762.5,190.5 M762.5,190.5 C742.94,189.56 731.93,179.54 730.5,158.5 M762.5,190.5 C742.9,190.08 732.15,177.66 730.5,158.5 M730.5,158.5 C729.51,125.73 730.75,96.19 730.5,62.5 M730.5,158.5 C730.8,131.13 730.87,104.24 730.5,62.5 M730.5,62.5 C729.54,42.66 741.93,31.41 762.5,30.5 M730.5,62.5 C731.84,42.98 742.29,32.77 762.5,30.5" fill-opacity="0" stroke="#1E1E1E" stroke-width="1" stroke-linecap="round"/>
      </g>
      <g>
        <text transform="matrix(1, 0, 0, 1, 841.251, 81.562)">
          <tspan x="-79.507" y="6.5" font-family="Helvetica" font-size="20" fill="#1E1E1E">openbis-database</tspan>
        </text>
        <text transform="matrix(1, 0, 0, 1, 841.251, 105.562)">
          <tspan x="-38.364" y="6.5" font-family="Helvetica" font-size="20" fill="#1E1E1E">5432/tcp</tspan>
        </text>
      </g>
      <g>
        <path d="M458.36,78.66 C458.36,78.66 458.36,78.66 458.36,78.66 M458.36,78.66 C458.36,78.66 458.36,78.66 458.36,78.66 M454.16,89.59 C458.94,86.19 460.41,82.46 468.6,72.98 M454.16,89.59 C458.58,85.54 460.66,81.01 468.6,72.98 M453.25,96.74 C458.61,92.78 461.47,84.43 474.9,71.83 M453.25,96.74 C459.82,88.33 468.13,81.15 474.9,71.83 M452.98,103.14 C460.33,94.82 466.35,91.05 481.2,70.68 M452.98,103.14 C461.28,93.79 469.06,83.3 481.2,70.68 M453.38,108.78 C461.44,99.47 470.58,88.33 484.87,72.55 M453.38,108.78 C465.66,94.02 478.84,79.35 484.87,72.55 M453.12,115.18 C460.52,102.79 470.93,92.22 489.86,72.91 M453.12,115.18 C463.13,103.36 473.35,90.45 489.86,72.91 M452.86,121.57 C463.44,111.73 471.67,100.55 495.5,72.52 M452.86,121.57 C467.95,105.36 480.92,87.63 495.5,72.52 M453.25,127.22 C465.15,113.85 474.06,99.77 500.49,72.88 M453.25,127.22 C463.72,113.79 475.35,101.66 500.49,72.88 M452.99,133.61 C469.02,113.7 482.05,99.12 506.13,72.48 M452.99,133.61 C466.95,118.46 479.38,103.5 506.13,72.48 M452.73,140.01 C471.02,120.2 487.84,101.65 511.12,72.84 M452.73,140.01 C468.58,121.66 483.79,103.48 511.12,72.84 M453.12,145.66 C478.86,117.56 504.24,90.8 516.76,72.45 M453.12,145.66 C472.17,125.26 490.33,104.64 516.76,72.45 M452.86,152.05 C473.14,128.28 494.54,106.48 521.75,72.81 M452.86,152.05 C469.53,134.48 484.42,116.66 521.75,72.81 M452.6,158.45 C471.24,136.28 492.49,111.15 527.39,72.41 M452.6,158.45 C482.45,124.68 510.89,89.92 527.39,72.41 M452.99,164.09 C476.16,137.59 497.03,110.7 532.38,72.77 M452.99,164.09 C476.22,136.35 500.95,107.36 532.38,72.77 M452.73,170.49 C485.38,134.5 516.66,101.63 538.02,72.38 M452.73,170.49 C469.92,149.79 485.81,130.1 538.02,72.38 M452.47,176.89 C477.98,149.05 504.47,120.18 543.01,72.74 M452.47,176.89 C470.55,155.19 490.21,131.98 543.01,72.74 M452.87,182.53 C487.56,140.58 527.52,97.18 548.65,72.35 M452.87,182.53 C478.61,152.07 506,121.04 548.65,72.35 M452.6,188.93 C484.52,151.41 516.09,113.71 553.64,72.71 M452.6,188.93 C488.86,145.41 525.53,104.31 553.64,72.71 M452.34,195.33 C486.76,151.5 523.7,109.61 559.28,72.31 M452.34,195.33 C487.89,154.34 522.5,115.44 559.28,72.31 M452.74,200.97 C487.59,157.18 521.7,118.77 564.27,72.67 M452.74,200.97 C489.09,159.84 527,117.31 564.27,72.67 M453.79,205.86 C485.27,171.21 516.34,133.36 569.91,72.28 M453.79,205.86 C493.51,157.8 532.73,112.85 569.91,72.28 M452.87,213.01 C487,172.5 525.06,129.71 574.9,72.64 M452.87,213.01 C497.78,160.22 542.84,106.77 574.9,72.64 M455.23,216.39 C498.33,167.68 539.18,123.28 580.54,72.24 M455.23,216.39 C490.36,175.76 528.04,133.18 580.54,72.24 M457.6,219.77 C496.47,172.57 536.33,128.12 585.53,72.6 M457.6,219.77 C498.12,174.4 537.34,127.15 585.53,72.6 M459.96,223.15 C504.02,174.17 544.55,125.92 591.17,72.21 M459.96,223.15 C489.51,188.88 519.41,154.27 591.17,72.21 M462.98,225.77 C504.63,173.73 552.04,122.74 596.16,72.57 M462.98,225.77 C499.91,183.68 536.74,142.63 596.16,72.57 M466.65,227.64 C512.69,173.76 561.6,122.84 601.15,72.93 M466.65,227.64 C513.81,173.16 561.58,118.21 601.15,72.93 M470.33,229.51 C522.39,169.85 572.18,111.15 606.79,72.53 M470.33,229.51 C513.31,179.89 556.4,131.05 606.79,72.53 M474.66,230.63 C524.44,175.74 572.73,119.95 611.78,72.89 M474.66,230.63 C525.82,169.33 578.29,109.97 611.78,72.89 M479.65,230.99 C524.98,175.87 573.77,122.58 618.73,70.99 M479.65,230.99 C508.63,197.76 536.95,165.09 618.73,70.99 M483.98,232.1 C537.31,169.5 592.87,106.75 623.72,71.35 M483.98,232.1 C531.86,176.17 579.1,119 623.72,71.35 M489.62,231.71 C519.92,197.39 546.4,167.04 628.05,72.46 M489.62,231.71 C526.58,189.25 563.7,147.62 628.05,72.46 M494.61,232.07 C545.73,170.4 600.01,109.94 633.04,72.82 M494.61,232.07 C526.87,194.9 557.96,158.97 633.04,72.82 M500.25,231.67 C530.68,198.68 560.51,163.54 636.71,74.69 M500.25,231.67 C543.89,181.73 586.41,132.93 636.71,74.69 M505.24,232.03 C541.97,185.76 582.9,140.51 639.73,77.32 M505.24,232.03 C546.28,183.79 589.38,135.87 639.73,77.32 M510.88,231.64 C551.97,184.63 593.4,136.01 643.4,79.19 M510.88,231.64 C552.65,182.97 594.03,134.62 643.4,79.19 M515.87,232 C568.87,173.64 617.1,114.39 645.77,82.57 M515.87,232 C543.24,200.62 570.99,166.94 645.77,82.57 M521.51,231.6 C558.13,190.17 596.99,145.87 647.47,86.7 M521.51,231.6 C564.6,181.92 606.73,133.47 647.47,86.7 M526.5,231.96 C556.1,197.59 583.85,164.37 649.84,90.08 M526.5,231.96 C563.56,192.05 598.67,151.5 649.84,90.08 M532.14,231.57 C558.71,202.22 585.66,169.65 650.89,94.97 M532.14,231.57 C577.48,177.74 624.45,124.57 650.89,94.97 M537.13,231.93 C561.53,201.53 587.56,175.96 651.28,100.61 M537.13,231.93 C581.55,180.2 625.43,130.02 651.28,100.61 M542.11,232.29 C571.84,198.07 600.09,167.3 652.99,104.74 M542.11,232.29 C564.38,205.02 589.17,178.2 652.99,104.74 M547.76,231.9 C571.9,202.02 597.04,173.86 652.73,111.14 M547.76,231.9 C580,193.22 613.57,156.43 652.73,111.14 M552.74,232.26 C576.87,206.75 599.53,179.08 653.12,116.78 M552.74,232.26 C577.92,202.92 603.17,174.01 653.12,116.78 M558.39,231.86 C581.72,203.11 606.76,174.89 652.86,123.18 M558.39,231.86 C595.15,191.27 629.74,149.28 652.86,123.18 M563.37,232.22 C583.7,205.78 606.41,180.19 653.25,128.83 M563.37,232.22 C589.44,201.84 615.82,172.21 653.25,128.83 M569.02,231.83 C596.3,199.77 622.33,169.17 652.99,135.22 M569.02,231.83 C588.6,209.9 607.17,187.59 652.99,135.22 M574,232.19 C594.23,211.03 612.26,185.37 652.73,141.62 M574,232.19 C590.91,211.07 609.14,191.22 652.73,141.62 M579.65,231.79 C603.3,203.22 628.62,175.84 653.13,147.26 M579.65,231.79 C597.64,212.62 614.58,192.36 653.13,147.26 M584.63,232.15 C605.61,207.91 630.48,179.25 652.86,153.66 M584.63,232.15 C605.09,210.22 624.65,186.98 652.86,153.66 M590.28,231.76 C610.17,210.32 626.67,190.07 653.26,159.31 M590.28,231.76 C608.39,209.47 626.14,189.32 653.26,159.31 M595.26,232.12 C618.79,208.27 640.39,180.23 653,165.7 M595.26,232.12 C609.2,214.73 624.68,198.61 653,165.7 M600.91,231.72 C612.45,216.04 625.82,204.23 652.74,172.1 M600.91,231.72 C620.44,208.38 642.32,183.61 652.74,172.1 M605.9,232.08 C617.24,217.46 629.24,203.28 653.13,177.74 M605.9,232.08 C624,211.24 640.38,191.83 653.13,177.74 M611.54,231.69 C623.82,216.68 638.47,199.05 652.87,184.14 M611.54,231.69 C623.72,217.18 638.5,201.49 652.87,184.14 M616.53,232.05 C631.39,216.51 644.33,200.91 653.26,189.78 M616.53,232.05 C626.07,220.69 636.16,208.75 653.26,189.78 M620.86,233.16 C630.19,219.91 644.6,205.71 651.03,198.45 M620.86,233.16 C629.42,223.42 639.48,212.75 651.03,198.45 M627.16,232.01 C634.05,222.82 641.94,218.26 649.46,206.35 M627.16,232.01 C633.94,224.7 638.88,218.43 649.46,206.35 M634.11,230.11 C638.88,226.38 642.69,221.94 649.2,212.75 M634.11,230.11 C639.95,224.45 645.59,217.41 649.2,212.75 M458.68,222.66 C458.68,222.66 458.68,222.66 458.68,222.66 M458.68,222.66 C458.68,222.66 458.68,222.66 458.68,222.66 M471.12,228.17 C466.92,221.93 458.52,220.03 453,212.42 M471.12,228.17 C464.57,223.99 460.63,219.79 453,212.42 M478.27,229.09 C466.76,220.28 460.02,213.35 451.86,206.12 M478.27,229.09 C470.5,223.28 463.68,217.61 451.86,206.12 M485.42,230 C476.16,222.97 467.97,213.1 450.71,199.82 M485.42,230 C475.18,220.43 464.21,211.82 450.71,199.82 M491.82,230.26 C478.72,218.65 461.96,204.83 450.31,194.18 M491.82,230.26 C484.43,223.65 475.06,215.45 450.31,194.18 M498.22,230.53 C488.39,221.35 475.65,210.24 450.67,189.19 M498.22,230.53 C481.37,216.35 466.59,202.62 450.67,189.19 M503.86,230.13 C483.52,214.61 463.37,195.08 451.03,184.21 M503.86,230.13 C487.73,215 470.96,200.93 451.03,184.21 M510.26,230.39 C498.29,218.78 482.65,205.2 450.64,178.56 M510.26,230.39 C496.23,217.14 480.49,205.52 450.64,178.56 M515.9,230 C497.36,211.96 474.47,194.51 451,173.58 M515.9,230 C491.36,209.73 465.87,188.28 451,173.58 M522.3,230.26 C497.39,208.43 475.75,188.92 450.6,167.93 M522.3,230.26 C497.3,208.8 473.51,188.19 450.6,167.93 M528.7,230.52 C502.41,210.67 479.62,188 450.96,162.95 M528.7,230.52 C509.38,213.6 491.42,196.39 450.96,162.95 M534.34,230.13 C505.5,201.84 472.18,178.55 450.57,157.3 M534.34,230.13 C515.27,214.85 496.22,197.71 450.57,157.3 M540.74,230.39 C518.04,209.84 493.33,190.2 450.93,152.32 M540.74,230.39 C517.94,213.16 496.64,192.72 450.93,152.32 M546.38,229.99 C516,203.48 486.97,180.87 450.53,146.67 M546.38,229.99 C513.63,201.38 477.98,170.06 450.53,146.67 M552.78,230.26 C513.08,196.2 474.89,162.59 450.89,141.69 M552.78,230.26 C514.35,198.05 478.16,166.14 450.89,141.69 M559.18,230.52 C536.54,209.63 514.11,188.63 451.25,136.7 M559.18,230.52 C528.63,206.12 500.37,180.18 451.25,136.7 M564.82,230.12 C540.5,205.83 514.44,185.87 450.86,131.06 M564.82,230.12 C531.4,200.35 499.37,172.38 450.86,131.06 M571.22,230.38 C536.29,198.77 498.22,164.37 451.22,126.07 M571.22,230.38 C524.9,190.67 480.58,150.99 451.22,126.07 M576.86,229.99 C547.49,204.78 517.86,180.64 450.82,120.43 M576.86,229.99 C528.42,187.71 480.74,146.35 450.82,120.43 M583.26,230.25 C538.12,192.02 498.45,155.23 451.18,115.44 M583.26,230.25 C533.86,185.46 484.43,144.07 451.18,115.44 M589.66,230.51 C557.63,201.89 529.85,175.5 450.79,109.8 M589.66,230.51 C556.46,200.12 521.49,171.45 450.79,109.8 M595.3,230.12 C549.59,192.45 508.86,152.86 451.15,104.81 M595.3,230.12 C565.13,203.75 533.28,176.46 451.15,104.81 M601.7,230.38 C555.64,191.18 509.88,150.93 450.76,99.17 M601.7,230.38 C540.6,176.44 479.97,125.65 450.76,99.17 M607.34,229.98 C571.78,199.84 537.9,165.95 451.12,94.18 M607.34,229.98 C552.22,183.81 497.97,137.2 451.12,94.18 M613.74,230.25 C564.12,185.72 510.74,140.38 452.23,89.85 M613.74,230.25 C579.93,199.38 545.03,169.3 452.23,89.85 M620.14,230.51 C585.52,200.8 554.42,171.31 454.1,86.17 M620.14,230.51 C573.79,189.66 525.8,148.82 454.1,86.17 M625.02,229.46 C582.55,195.67 542.42,158.14 455.97,82.5 M625.02,229.46 C569.54,179.16 511.54,130.07 455.97,82.5 M630.67,229.06 C584.79,190.01 538.04,151.65 458.59,79.48 M630.67,229.06 C597.29,198.12 562.8,167.83 458.59,79.48 M634.8,227.35 C572.21,173.16 509.33,117.56 461.22,76.46 M634.8,227.35 C585.21,182.07 533.61,136.74 461.22,76.46 M638.18,224.99 C574.73,171.24 514.53,114.68 465.35,74.75 M638.18,224.99 C570.75,167.07 506.01,109.99 465.35,74.75 M641.56,222.63 C593.17,179.54 543.74,137.97 468.73,72.39 M641.56,222.63 C590.59,178.43 539.11,134.32 468.73,72.39 M644.18,219.61 C580.65,163.88 515.69,108.72 473.62,71.34 M644.18,219.61 C584.28,168.59 524.98,117.49 473.62,71.34 M646.05,215.94 C585.09,164.41 522.49,111.75 479.26,70.95 M646.05,215.94 C610.52,186.23 575.68,155.11 479.26,70.95 M648.68,212.92 C598.06,166.56 545.59,121.95 484.15,69.9 M648.68,212.92 C594.85,165.73 541.93,119.4 484.15,69.9 M649.79,208.59 C605.48,171.46 564.2,134.23 490.55,70.16 M649.79,208.59 C586.99,153.27 523.19,98.75 490.55,70.16 M650.15,203.6 C603.09,161.64 554.53,121.89 496.95,70.42 M650.15,203.6 C588.45,150.58 528.15,99.4 496.95,70.42 M650.51,198.61 C593.1,147.99 533.67,99.18 502.59,70.02 M650.51,198.61 C612.8,162.91 571.71,129.87 502.59,70.02 M650.87,193.62 C620.46,165.98 590.47,140.19 508.99,70.29 M650.87,193.62 C606.73,155.01 560.43,115.87 508.99,70.29 M651.23,188.64 C618.77,160.27 583.9,132.07 514.63,69.89 M651.23,188.64 C604.22,149.94 558.69,109.53 514.63,69.89 M650.84,182.99 C600.58,138.32 547.08,94.43 521.03,70.15 M650.84,182.99 C605.47,142.2 561.34,104.19 521.03,70.15 M651.2,178.01 C615.78,149.04 583.51,122.65 527.43,70.41 M651.2,178.01 C605.43,137.52 559.71,97.09 527.43,70.41 M650.8,172.36 C605.81,134.77 562.26,93.1 533.07,70.02 M650.8,172.36 C606.14,133.43 562.07,93.02 533.07,70.02 M651.16,167.38 C627.26,146.07 598.67,123.05 539.47,70.28 M651.16,167.38 C625.47,143.84 598.96,123.19 539.47,70.28 M650.77,161.73 C610.92,128.99 570.25,91 545.11,69.89 M650.77,161.73 C627.44,142.42 604.42,123.45 545.11,69.89 M651.13,156.75 C625.99,134.86 602.28,115.87 551.51,70.15 M651.13,156.75 C626.41,136.37 604.15,115.26 551.51,70.15 M650.73,151.1 C617.93,121.85 581.63,90.37 557.91,70.41 M650.73,151.1 C621.27,125.27 592.24,99.37 557.91,70.41 M651.09,146.12 C623.5,125.54 600.86,99.76 563.55,70.01 M651.09,146.12 C617.42,116.49 584.04,86.86 563.55,70.01 M651.45,141.13 C632.2,123.66 617.2,109.37 569.95,70.28 M651.45,141.13 C633.42,124.96 616.12,109.76 569.95,70.28 M651.06,135.49 C624.06,110.08 596.2,88.89 575.59,69.88 M651.06,135.49 C623.09,112.48 595.41,87.79 575.59,69.88 M651.42,130.5 C629.23,110.59 607.28,92.75 581.99,70.14 M651.42,130.5 C627.68,110.62 605.03,90.77 581.99,70.14 M651.03,124.86 C635.22,109.24 619.51,96.08 588.38,70.4 M651.03,124.86 C631.61,107.03 611.1,90.7 588.38,70.4 M651.39,119.87 C638.59,109.15 624.91,99.26 594.03,70.01 M651.39,119.87 C630.15,101.32 610.88,85.19 594.03,70.01 M650.99,114.23 C638.79,102.75 628.6,92.56 600.43,70.27 M650.99,114.23 C637.14,102.71 622.91,89.41 600.43,70.27 M651.35,109.24 C634.8,95.29 619.81,81.19 606.07,69.88 M651.35,109.24 C641.19,99.72 628.58,89.74 606.07,69.88 M650.96,103.6 C636.09,90.22 621.8,76.73 612.47,70.14 M650.96,103.6 C637.16,92.69 625.14,81.62 612.47,70.14 M649.81,97.3 C636.93,87.55 630,78.46 618.86,70.4 M649.81,97.3 C642.19,90.87 635.71,84.49 618.86,70.4 M649.41,91.65 C639.82,85.57 631.81,77.84 626.02,71.32 M649.41,91.65 C644.23,86.58 637.13,81.63 626.02,71.32 M645.24,82.73 C640.51,78.67 637.78,76.99 633.17,72.23 M645.24,82.73 C641.51,80.53 639.19,76.67 633.17,72.23" fill-opacity="0" stroke="#CED4DA" stroke-width="0.5" stroke-linecap="round"/>
        <path d="M482.5,70.5 C531.95,69.35 583.61,71.5 618.5,70.5 M482.5,70.5 C535.87,71.89 587.65,72.21 618.5,70.5 M618.5,70.5 C641.35,68.57 650.12,79.92 650.5,102.5 M618.5,70.5 C639.96,72.45 649.63,82.53 650.5,102.5 M650.5,102.5 C650.83,128.12 651.1,150.22 650.5,198.5 M650.5,102.5 C649.69,136.27 650.71,167.19 650.5,198.5 M650.5,198.5 C649.73,219.31 640.98,230.46 618.5,230.5 M650.5,198.5 C648.66,218.98 638.09,230.43 618.5,230.5 M618.5,230.5 C580.87,231.69 542.99,231.98 482.5,230.5 M618.5,230.5 C583.18,229.31 546.16,228.86 482.5,230.5 M482.5,230.5 C461.99,232.05 449.66,218.23 450.5,198.5 M482.5,230.5 C461.4,229.01 452.41,217.9 450.5,198.5 M450.5,198.5 C448.62,163.78 450.69,132.95 450.5,102.5 M450.5,198.5 C451.63,173.4 452.13,147.34 450.5,102.5 M450.5,102.5 C450.88,81.78 460.39,68.91 482.5,70.5 M450.5,102.5 C449.97,80.49 461.47,72.5 482.5,70.5" fill-opacity="0" stroke="#1E1E1E" stroke-width="1" stroke-linecap="round"/>
      </g>
      <g>
        <text transform="matrix(1, 0, 0, 1, 549.891, 112.5)">
          <tspan x="-66.143" y="6.5" font-family="Helvetica" font-size="20" fill="#1E1E1E">openbis-server</tspan>
        </text>
        <text transform="matrix(1, 0, 0, 1, 549.891, 136.5)">
          <tspan x="-38.364" y="6.5" font-family="Helvetica" font-size="20" fill="#1E1E1E">8080/tcp</tspan>
        </text>
        <text transform="matrix(1, 0, 0, 1, 549.891, 160.5)">
          <tspan x="-38.364" y="6.5" font-family="Helvetica" font-size="20" fill="#1E1E1E">8081/tcp</tspan>
        </text>
      </g>
      <path d="M40.816,90.44 C41.596,84.91 41.746,65.61 46.046,57.41 C50.346,49.22 59.946,41.61 66.626,41.27 C73.296,40.93 81.586,47.69 86.096,55.38 C90.606,63.06 101.166,81.55 93.686,87.36 C86.196,93.18 49.976,89.89 41.176,90.26 M39.696,89.44 C40.186,84.03 40.586,66.37 44.976,58.5 C49.366,50.63 59.166,43.12 66.046,42.23 C72.926,41.34 81.356,45.52 86.256,53.14 C91.146,60.76 103.226,81.93 95.426,87.94 C87.626,93.95 48.366,88.59 39.446,89.19" fill-opacity="0" stroke="#1E1E1E" stroke-width="1" stroke-linecap="round"/>
      <path d="M69.112,16.387 C72.022,16.497 75.602,18.637 77.692,20.567 C79.782,22.497 81.432,25.497 81.652,27.957 C81.882,30.407 80.642,33.207 79.042,35.317 C77.452,37.427 74.862,39.837 72.102,40.627 C69.342,41.417 65.282,41.107 62.492,40.057 C59.702,38.997 56.782,36.687 55.382,34.297 C53.972,31.907 53.422,28.217 54.082,25.717 C54.752,23.207 56.842,20.707 59.372,19.257 C61.902,17.797 67.602,17.257 69.252,16.967 C70.912,16.667 69.292,17.317 69.302,17.477 M66.332,17.127 C69.112,16.647 72.992,16.867 75.532,18.147 C78.062,19.427 80.582,22.277 81.552,24.797 C82.532,27.317 82.562,30.737 81.382,33.257 C80.212,35.777 77.292,38.577 74.482,39.917 C71.672,41.267 67.462,41.877 64.542,41.337 C61.622,40.797 58.702,38.977 56.972,36.687 C55.252,34.397 54.152,30.167 54.192,27.607 C54.242,25.047 55.352,23.167 57.252,21.337 C59.152,19.507 64.142,17.427 65.602,16.617 C67.062,15.807 65.922,16.357 66.032,16.477" fill-opacity="0" stroke="#1E1E1E" stroke-width="1" stroke-linecap="round"/>
      <text transform="matrix(1, 0, 0, 1, 67.345, 107.051)">
        <tspan x="-21.113" y="6.5" font-family="Helvetica" font-size="20" fill="#1E1E1E">User</tspan>
      </text>
      <g>
        <path d="M61.469,124.583 C86.849,132.413 113.479,140.733 153.979,151.613 M61.469,124.583 C82.749,132.123 103.579,137.183 153.979,151.613" fill-opacity="0" stroke="#000000" stroke-width="2" stroke-linecap="round"/>
        <path d="M129.049,153.463 C135.709,153.643 143.899,154.083 153.979,151.613 M129.049,153.463 C134.759,153.973 140.039,152.393 153.979,151.613" fill-opacity="0" stroke="#000000" stroke-width="2" stroke-linecap="round"/>
        <path d="M133.689,137.003 C139.239,141.703 146.159,146.623 153.979,151.613 M133.689,137.003 C138.339,141.273 142.559,143.473 153.979,151.613" fill-opacity="0" stroke="#000000" stroke-width="2" stroke-linecap="round"/>
      </g>
      <g>
        <path d="M370.5,170.5 C399.49,163.01 425.88,157.16 450.5,150.5 M370.5,170.5 C391.87,164.58 414.47,159.87 450.5,150.5" fill-opacity="0" stroke="#000000" stroke-width="2" stroke-linecap="round"/>
        <path d="M429.8,164.53 C438.49,159.05 444.61,155.24 450.5,150.5 M429.8,164.53 C435.21,159.9 441.88,156.79 450.5,150.5" fill-opacity="0" stroke="#000000" stroke-width="2" stroke-linecap="round"/>
        <path d="M425.63,147.94 C435.62,148.13 443.17,150 450.5,150.5 M425.63,147.94 C432.05,147.79 439.84,149.14 450.5,150.5" fill-opacity="0" stroke="#000000" stroke-width="2" stroke-linecap="round"/>
      </g>
      <g>
        <path d="M651.5,162.994 C681.92,144.544 709.05,132.204 729.5,120.924 M651.5,162.994 C673.69,151.404 695.23,138.874 729.5,120.924" fill-opacity="0" stroke="#000000" stroke-width="2" stroke-linecap="round"/>
        <path d="M712.8,139.524 C719.89,130.374 723.49,127.044 729.5,120.924 M712.8,139.524 C718.21,134.664 722.78,128.624 729.5,120.924" fill-opacity="0" stroke="#000000" stroke-width="2" stroke-linecap="round"/>
        <path d="M704.75,124.434 C715.06,121.034 721.74,123.494 729.5,120.924 M704.75,124.434 C712.52,123.724 719.32,121.864 729.5,120.924" fill-opacity="0" stroke="#000000" stroke-width="2" stroke-linecap="round"/>
      </g>
      <g>
        <path d="M650.5,170.5 C689.45,212.24 729.74,256.08 784.56,310.99 M650.5,170.5 C692.26,214.74 733.43,258.08 784.56,310.99" fill-opacity="0" stroke="#000000" stroke-width="2" stroke-linecap="round"/>
        <path d="M762.11,299.99 C769.22,302.8 776.55,308.41 784.56,310.99 M762.11,299.99 C768.63,303.75 775.37,307.15 784.56,310.99" fill-opacity="0" stroke="#000000" stroke-width="2" stroke-linecap="round"/>
        <path d="M774.43,288.13 C777.81,294.37 781.5,303.48 784.56,310.99 M774.43,288.13 C777.22,295.5 780.16,302.55 784.56,310.99" fill-opacity="0" stroke="#000000" stroke-width="2" stroke-linecap="round"/>
      </g>
      <g>
        <path d="M890.579,191.5 C874.189,216.98 854.509,244.82 809.199,306.31 M890.579,191.5 C862.479,229.95 835.069,269.72 809.199,306.31" fill-opacity="0" stroke="#000000" stroke-width="2" stroke-linecap="round"/>
        <path d="M815.719,282.17 C816.189,285.93 814.219,292.31 809.199,306.31 M815.719,282.17 C813.209,289.5 811.209,298.48 809.199,306.31" fill-opacity="0" stroke="#000000" stroke-width="2" stroke-linecap="round"/>
        <path d="M829.709,292.01 C826.769,293.48 821.489,297.54 809.199,306.31 M829.709,292.01 C822.469,296.06 815.719,301.71 809.199,306.31" fill-opacity="0" stroke="#000000" stroke-width="2" stroke-linecap="round"/>
      </g>
      <g>
        <path d="M748.74,346.23 C748.74,346.23 748.74,346.23 748.74,346.23 M748.74,346.23 C748.74,346.23 748.74,346.23 748.74,346.23 M741.92,360.17 C750.4,350.83 760.83,338.55 772.75,324.7 M741.92,360.17 C750.63,350 759.84,339.75 772.75,324.7 M735.09,374.12 C743.25,362.49 751.42,353.54 776.43,326.57 M735.09,374.12 C749.11,357.9 763.84,341.78 776.43,326.57 M735.49,379.76 C752.01,362.76 767.68,342.97 784.04,323.91 M735.49,379.76 C747.28,365.45 759.84,352.18 784.04,323.91 M735.23,386.16 C749.89,369.1 764.04,352.48 791.65,321.25 M735.23,386.16 C752.41,366.8 770.15,346.66 791.65,321.25 M734.31,393.31 C756.26,365.83 783.43,337.99 799.26,318.6 M734.31,393.31 C758.67,364.4 785.43,334.41 799.26,318.6 M734.05,399.71 C750.64,377.49 768.65,359.32 809.49,312.92 M734.05,399.71 C760.04,369.56 786.48,340.32 809.49,312.92 M733.79,406.11 C750.62,385.35 768.73,365.82 814.48,313.28 M733.79,406.11 C757.91,377.17 782.28,349.76 814.48,313.28 M732.21,414.01 C755,388.63 776.22,361.21 819.47,313.64 M732.21,414.01 C752.12,393.2 770.74,369.42 819.47,313.64 M733.26,418.9 C756.63,393.87 776.39,368.11 825.11,313.24 M733.26,418.9 C757.59,391.25 782.21,364.24 825.11,313.24 M734.97,423.04 C765.52,387.72 798.69,349.65 830.1,313.6 M734.97,423.04 C765.87,385.96 798.24,350.74 830.1,313.6 M736.68,427.17 C766.86,393.42 798.57,360.49 835.09,313.96 M736.68,427.17 C759.37,402.71 780.64,376.59 835.09,313.96 M738.38,431.3 C775.71,389.58 815.25,346.64 840.73,313.57 M738.38,431.3 C776.66,386.98 815.44,342.11 840.73,313.57 M740.09,435.44 C782.83,386.36 825.01,340.96 845.06,314.68 M740.09,435.44 C763.78,408.76 786.61,382.86 845.06,314.68 M741.8,439.57 C765.78,412.39 788.37,386.6 848.73,316.55 M741.8,439.57 C776.25,401.84 808.3,361.85 848.73,316.55 M743.5,443.7 C772.23,415.22 795.11,385.05 852.41,318.42 M743.5,443.7 C779.85,400.45 814.47,359.14 852.41,318.42 M745.21,447.84 C777.74,414.34 807.96,377.73 856.08,320.29 M745.21,447.84 C785.97,398.49 828.3,349.89 856.08,320.29 M747.57,451.22 C777.67,416.11 810.32,378.88 859.76,322.16 M747.57,451.22 C787.71,405.7 827.33,359.89 859.76,322.16 M750.59,453.84 C778.85,419.65 808.84,389.49 863.43,324.03 M750.59,453.84 C783.93,414.81 818.26,378.15 863.43,324.03 M752.95,457.22 C783.17,424.2 812.87,387.2 867.11,325.9 M752.95,457.22 C790.79,413.8 827.69,370.63 867.11,325.9 M755.97,459.84 C800,411.85 839.44,363.88 870.78,327.77 M755.97,459.84 C782.24,427.97 810.06,396.83 870.78,327.77 M758.34,463.22 C795.22,421.65 831.52,380.23 875.11,328.89 M758.34,463.22 C803.08,412.96 846.97,361.88 875.11,328.89 M761.35,465.85 C805.6,413.57 847.4,364.51 877.48,332.26 M761.35,465.85 C793.58,429.26 826.17,392.28 877.48,332.26 M763.72,469.23 C786.39,442.03 811.95,409.73 880.5,334.89 M763.72,469.23 C803.55,426.08 840.34,383.95 880.5,334.89 M766.74,471.85 C809.26,427.49 850.28,380.82 882.86,338.27 M766.74,471.85 C809.83,423.99 849.76,375.63 882.86,338.27 M769.76,474.48 C806.35,429.94 847.57,382.53 885.88,340.89 M769.76,474.48 C795.84,442.88 821.42,415.16 885.88,340.89 M773.43,476.35 C810.37,433.49 843.4,392.67 888.24,344.27 M773.43,476.35 C805.76,437.93 840.28,401.21 888.24,344.27 M777.11,478.21 C816.38,433.54 855.85,388.41 891.26,346.9 M777.11,478.21 C802.44,448.92 828.56,418.57 891.26,346.9 M780.78,480.08 C822.67,430.38 862.81,382.25 893.62,350.27 M780.78,480.08 C821.64,434.24 861.84,387.29 893.62,350.27 M784.46,481.95 C807.37,453.59 830.96,428.88 895.99,353.65 M784.46,481.95 C825.75,433.85 867.01,386.61 895.99,353.65 M788.13,483.82 C811.82,456.35 834.79,432.99 899,356.28 M788.13,483.82 C823.16,440.53 859.74,399.92 899,356.28 M791.8,485.69 C821.05,450.95 853.72,416.33 900.71,360.41 M791.8,485.69 C830.39,442 868.28,397.74 900.71,360.41 M795.48,487.56 C835.37,441.21 875.93,394.03 902.42,364.54 M795.48,487.56 C822.37,457.42 846.71,428.38 902.42,364.54 M799.15,489.43 C836.11,444.67 875.36,400.07 904.12,368.68 M799.15,489.43 C836.24,448.38 872.2,406.12 904.12,368.68 M804.8,489.04 C825.97,467.58 846.82,443.4 905.83,372.81 M804.8,489.04 C825.54,465.58 846.13,440.34 905.83,372.81 M809.78,489.4 C836.9,460.03 859.05,430.22 907.54,376.95 M809.78,489.4 C831.26,466.65 851.7,442.72 907.54,376.95 M814.77,489.76 C844.77,457.85 874.21,423.91 909.24,381.08 M814.77,489.76 C834.1,465.91 854.24,444.11 909.24,381.08 M819.76,490.12 C842.86,466.78 863.39,440.6 910.95,385.21 M819.76,490.12 C843.79,462.2 867.29,435.69 910.95,385.21 M825.4,489.72 C848.44,466.11 869.46,437.63 912.66,389.35 M825.4,489.72 C853.65,456.61 883.69,424.11 912.66,389.35 M830.39,490.08 C858.24,458.33 886.42,427.02 912.4,395.74 M830.39,490.08 C856.07,461.72 879.99,434.17 912.4,395.74 M834.72,491.2 C857.68,465.49 881.65,437.56 911.48,402.9 M834.72,491.2 C856.18,465.46 878.83,439.41 911.48,402.9 M842.99,487.78 C863.02,465.68 881.05,442.94 911.22,409.29 M842.99,487.78 C856.64,471.9 871.51,455.09 911.22,409.29 M850.6,485.13 C865.69,466.75 885.86,447.18 910.3,416.45 M850.6,485.13 C869.48,464.23 887.48,443.07 910.3,416.45 M858.21,482.47 C876.85,464.01 894.83,440.5 909.38,423.6 M858.21,482.47 C875.31,461.75 892.68,442.71 909.38,423.6 M867.79,477.54 C879.76,464.26 889.71,451.19 903.22,436.79 M867.79,477.54 C877.97,466.23 886.81,454.82 903.22,436.79 M767.82,473.34 C767.82,473.34 767.82,473.34 767.82,473.34 M767.82,473.34 C767.82,473.34 767.82,473.34 767.82,473.34 M781.77,480.16 C769.37,469.29 755.58,459.55 744.79,448.02 M781.77,480.16 C773.85,473 763.6,464.91 744.79,448.02 M795.71,486.98 C778.98,472.99 765.16,457.72 742.13,440.4 M795.71,486.98 C777.72,471.63 758.58,454.78 742.13,440.4 M803.62,488.56 C779.53,470.73 759.6,451.04 739.47,432.79 M803.62,488.56 C786.68,473.57 769.41,458.71 739.47,432.79 M810.02,488.82 C786.98,466.47 763.63,446.57 736.06,424.53 M810.02,488.82 C787.45,470.07 766.52,449.72 736.06,424.53 M816.41,489.08 C798.02,473.53 777.89,454.88 733.4,416.91 M816.41,489.08 C793.46,471.22 772.44,452.27 733.4,416.91 M822.81,489.34 C798.08,467.39 772.43,445.32 731.49,409.96 M822.81,489.34 C791.07,460 758.68,432.52 731.49,409.96 M829.21,489.6 C802.22,461.61 771.42,436.4 731.85,404.97 M829.21,489.6 C808.48,472.11 787.11,454.3 731.85,404.97 M834.85,489.21 C813.15,468.1 788.32,448.85 732.21,399.98 M834.85,489.21 C798.44,459.63 761.66,427.17 732.21,399.98 M838.99,487.5 C807.01,456.5 769.26,427.51 732.57,395 M838.99,487.5 C815.03,466.2 792.57,446.63 732.57,395 M843.12,485.8 C816.56,459.63 787.15,435.87 732.93,390.01 M843.12,485.8 C814.98,460.91 787.34,436.23 732.93,390.01 M847.25,484.09 C808.34,448.61 770.71,413.21 733.29,385.02 M847.25,484.09 C810.45,453.62 773.82,420.59 733.29,385.02 M851.39,482.38 C808.8,443.37 763.98,405.15 732.9,379.38 M851.39,482.38 C808.05,444.86 764.77,407.54 732.9,379.38 M855.52,480.68 C821.57,448.75 784.52,419.03 734.77,375.71 M855.52,480.68 C823.34,453.76 790.7,425.96 734.77,375.71 M860.41,479.62 C831.88,453.82 803.01,430.46 736.64,372.03 M860.41,479.62 C824.69,450.07 789.22,418.89 736.64,372.03 M864.54,477.92 C815.99,434.91 768.79,393.44 738.51,368.36 M864.54,477.92 C821.75,441.61 778.69,404.1 738.51,368.36 M868.68,476.21 C817.17,432.21 770.38,386.92 740.38,364.68 M868.68,476.21 C821.12,434.64 772.7,392.37 740.38,364.68 M871.3,473.19 C834.7,440.27 799.94,408.09 742.25,361.01 M871.3,473.19 C828.53,437.66 786.15,400.65 742.25,361.01 M873.93,470.17 C843.33,440.84 811.95,416.8 744.12,357.33 M873.93,470.17 C837.31,436.3 799.4,403.1 744.12,357.33 M877.3,467.81 C833.04,431.12 788.71,389.14 745.23,353 M877.3,467.81 C825.26,424.93 773.15,380.11 745.23,353 M879.93,464.79 C843.7,431.21 805.83,399.23 747.1,349.33 M879.93,464.79 C848.74,439.69 818.67,411.74 747.1,349.33 M883.31,462.43 C832.09,418.37 783.26,374.15 748.97,345.65 M883.31,462.43 C836.08,421.28 786.75,377.49 748.97,345.65 M885.93,459.41 C849.89,428.21 812.01,397.86 752.35,343.29 M885.93,459.41 C843.62,423.3 803.45,388.16 752.35,343.29 M888.56,456.39 C846.72,419.18 805.52,383.96 754.97,340.27 M888.56,456.39 C857.02,430.76 828.37,404.47 754.97,340.27 M891.94,454.03 C858.31,425.08 822.22,392.43 758.35,337.91 M891.94,454.03 C841.92,411.76 793.77,369.17 758.35,337.91 M893.8,450.35 C852.01,416.61 814.66,383.45 760.98,334.89 M893.8,450.35 C855.15,417.95 816.73,383.54 760.98,334.89 M895.67,446.68 C849.94,407.62 803.55,367.28 764.35,332.52 M895.67,446.68 C846.05,405.93 796.69,362.35 764.35,332.52 M897.54,443 C872.29,417.23 843.86,395.91 766.98,329.51 M897.54,443 C847.55,399.9 796.06,354.56 766.98,329.51 M899.41,439.33 C858.37,403.17 813.72,364.81 770.36,327.14 M899.41,439.33 C870.93,413.09 843.53,388.47 770.36,327.14 M901.28,435.65 C855.32,396.52 810.73,358.79 772.98,324.12 M901.28,435.65 C866.76,405.37 831.77,373.84 772.98,324.12 M903.15,431.98 C869.2,404.36 838.47,373.41 777.12,322.42 M903.15,431.98 C861.95,397.31 821.58,361.26 777.12,322.42 M904.27,427.65 C861.78,392.69 817.64,355.55 781.25,320.71 M904.27,427.65 C877.89,405.86 852.5,383.86 781.25,320.71 M906.14,423.97 C871.63,391.91 834.97,362.46 786.14,319.66 M906.14,423.97 C877.16,398.07 849.54,373.9 786.14,319.66 M908.01,420.3 C876.8,395.63 850.39,368.84 790.27,317.95 M908.01,420.3 C880.87,395.84 853.06,372.82 790.27,317.95 M908.37,415.31 C880.11,391.51 852.36,367.98 794.41,316.25 M908.37,415.31 C883.64,394.34 857.37,373.54 794.41,316.25 M908.73,410.32 C883.78,387.22 859.51,368.47 799.29,315.2 M908.73,410.32 C881.56,387.1 854.64,363.34 799.29,315.2 M909.09,405.34 C869.51,367.73 826.37,334.06 803.43,313.49 M909.09,405.34 C882.7,382.35 856.63,359.05 803.43,313.49 M909.45,400.35 C880.2,371.4 849.25,347.91 808.32,312.44 M909.45,400.35 C878.24,372.9 844.93,343.62 808.32,312.44 M909.81,395.36 C881.17,369.96 854.24,346.32 813.96,312.04 M909.81,395.36 C883.27,373.16 855.36,350.1 813.96,312.04 M910.17,390.38 C877.69,362.21 844.68,335.48 820.36,312.31 M910.17,390.38 C889.19,371.54 870.29,355.89 820.36,312.31 M909.77,384.73 C876.62,358.31 846.3,329.93 826.75,312.57 M909.77,384.73 C882.19,361.06 856.36,338.19 826.75,312.57 M906.36,376.47 C890.61,364.79 874.59,350.95 832.4,312.17 M906.36,376.47 C886.17,358.74 867.03,342.95 832.4,312.17 M902.95,368.2 C889.54,358.07 874.92,345.88 838.8,312.43 M902.95,368.2 C879.63,349.17 857.89,328.69 838.8,312.43 M899.53,359.93 C883.58,347.37 871.44,333.69 846.7,314.01 M899.53,359.93 C885.16,346.72 869.36,333.85 846.7,314.01 M892.34,348.38 C881.41,338.03 870.19,331.32 860.65,320.83 M892.34,348.38 C884.64,340.97 874.85,332.86 860.65,320.83" fill-opacity="0" stroke="#CED4DA" stroke-width="0.5" stroke-linecap="round"/>
        <path d="M807.93,312.13 C818.63,309.19 831.49,309.87 842.62,312.61 C853.76,315.34 865.67,321.57 874.73,328.52 C883.78,335.48 891.06,344.54 896.96,354.31 C902.87,364.08 908.44,375.85 910.13,387.14 C911.83,398.43 910.04,411.04 907.15,422.03 C904.27,433.03 899.46,443.97 892.82,453.12 C886.18,462.27 877.22,470.85 867.29,476.96 C857.36,483.06 844.67,487.84 833.24,489.76 C821.81,491.67 809.6,491.17 798.72,488.45 C787.84,485.73 777.07,480.34 767.94,473.44 C758.81,466.55 750.04,457.03 743.94,447.1 C737.83,437.17 733.1,425.35 731.32,413.87 C729.54,402.39 730.37,389.47 733.26,378.21 C736.15,366.95 741.91,355.38 748.67,346.31 C755.42,337.23 762.38,329.74 773.79,323.77 C785.19,317.8 808.58,312.38 817.12,310.48 C825.66,308.57 825.16,310.82 825.04,312.34 M808.45,312.29 C819.08,309.33 831.46,309.31 842.28,312.1 C853.1,314.88 864.23,321.9 873.36,328.99 C882.49,336.07 890.85,344.7 897.07,354.61 C903.29,364.51 908.75,377.09 910.68,388.41 C912.61,399.72 911.66,411.63 908.65,422.52 C905.63,433.42 899.69,444.57 892.6,453.78 C885.51,462.98 876.19,471.92 866.09,477.76 C855.99,483.59 843.23,486.96 831.97,488.78 C820.71,490.6 809.28,491.59 798.54,488.7 C787.8,485.81 776.78,478.53 767.54,471.44 C758.29,464.35 749.05,456.03 743.06,446.16 C737.06,436.29 733.23,423.45 731.59,412.21 C729.95,400.97 730.47,389.91 733.21,378.74 C735.96,367.57 741.25,354.36 748.08,345.19 C754.9,336.02 764.11,329.46 774.18,323.72 C784.25,317.98 802.94,312.61 808.5,310.76 C814.05,308.91 807.37,310.79 807.5,312.61" fill-opacity="0" stroke="#1E1E1E" stroke-width="1" stroke-linecap="round"/>
      </g>
      <g>
        <text transform="matrix(1, 0, 0, 1, 820.016, 379.5)">
          <tspan x="-33.354" y="6.5" font-family="Helvetica" font-size="20" fill="#1E1E1E">storage</tspan>
        </text>
        <text transform="matrix(1, 0, 0, 1, 820.016, 403.5)">
          <tspan x="-37.236" y="6.5" font-family="Helvetica" font-size="20" fill="#1E1E1E">volumes</tspan>
        </text>
      </g>
    </g>
  </g>
</svg>
